<?xml version="1.0" encoding="iso-8859-1"?>
<!-- Uploaded to: SVG Repo, www.svgrepo.com, Generator: SVG Repo Mixer Tools -->
<svg height="800px" width="800px" version="1.1" id="Layer_1" xmlns="http://www.w3.org/2000/svg" xmlns:xlink="http://www.w3.org/1999/xlink" 
	 viewBox="0 0 512 512" xml:space="preserve">
<path style="fill:#666666;" d="M187.505,191.287c47.905,0,86.75,38.833,86.75,86.75c0,47.905-38.845,86.75-86.75,86.75
	s-86.75-38.845-86.75-86.75C100.755,230.12,139.599,191.287,187.505,191.287z"/>
<path style="fill:#D2E3F7;" d="M187.505,233.853c24.399,0,44.184,19.779,44.184,44.184c0,24.399-19.785,44.184-44.184,44.184
	s-44.184-19.785-44.184-44.184C143.321,253.632,163.106,233.853,187.505,233.853z"/>
<path style="fill:#DF4D60;" d="M376.013,194.936c12.746,0,23.083,10.338,23.083,23.083c0,12.746-10.338,23.083-23.083,23.083
	c-12.758,0-23.095-10.338-23.095-23.083C352.917,205.273,363.255,194.936,376.013,194.936z"/>
<path style="fill:#666666;" d="M421.011,114.558v28.763h-91.42v-28.763c0-8.452,6.847-15.3,15.3-15.3H405.7
	C414.152,99.259,421.011,106.106,421.011,114.558z"/>
<path style="fill:#CCC2B8;" d="M463.979,226.958v163.43c0,12.344-10.009,22.353-22.353,22.353H70.386
	c-12.344,0-22.353-10.009-22.353-22.353v-163.43v-41.958v-19.325c0-12.344,10.009-22.353,22.353-22.353h259.205h91.42h20.614
	c12.344,0,22.353,10.009,22.353,22.353v19.325V226.958z M399.096,218.019c0-12.746-10.338-23.083-23.083-23.083
	c-12.758,0-23.095,10.338-23.095,23.083c0,12.746,10.338,23.083,23.095,23.083C388.758,241.102,399.096,230.764,399.096,218.019z
	 M274.255,278.037c0-47.918-38.845-86.75-86.75-86.75s-86.75,38.833-86.75,86.75c0,47.905,38.845,86.75,86.75,86.75
	S274.255,325.943,274.255,278.037z"/>
<path d="M441.626,424.903H70.386c-19.031,0-34.515-15.483-34.515-34.515V165.674c0-19.032,15.483-34.516,34.515-34.516h259.205
	c6.716,0,12.162,5.446,12.162,12.162s-5.446,12.162-12.162,12.162H70.386c-5.62,0-10.192,4.573-10.192,10.193v224.714
	c0,5.62,4.572,10.192,10.192,10.192h371.239c5.62,0,10.192-4.572,10.192-10.192V165.674c0-5.62-4.572-10.193-10.192-10.193h-20.614
	c-6.716,0-12.162-5.446-12.162-12.162s5.446-12.162,12.162-12.162h20.614c19.031,0,34.515,15.483,34.515,34.516v224.714
	C476.141,409.42,460.656,424.903,441.626,424.903z"/>
<path id="SVGCleanerId_0" d="M187.505,376.949c-54.541,0-98.912-44.371-98.912-98.912s44.371-98.912,98.912-98.912
	s98.912,44.371,98.912,98.912S242.046,376.949,187.505,376.949z M187.505,203.449c-41.128,0-74.588,33.461-74.588,74.588
	s33.461,74.588,74.588,74.588s74.588-33.461,74.588-74.588S228.632,203.449,187.505,203.449z"/>
<g>
	<path id="SVGCleanerId_0_1_" d="M187.505,376.949c-54.541,0-98.912-44.371-98.912-98.912s44.371-98.912,98.912-98.912
		s98.912,44.371,98.912,98.912S242.046,376.949,187.505,376.949z M187.505,203.449c-41.128,0-74.588,33.461-74.588,74.588
		s33.461,74.588,74.588,74.588s74.588-33.461,74.588-74.588S228.632,203.449,187.505,203.449z"/>
</g>
<path d="M187.505,334.383c-31.07,0-56.346-25.276-56.346-56.346s25.276-56.346,56.346-56.346c6.716,0,12.162,5.446,12.162,12.162
	s-5.446,12.162-12.162,12.162c-17.658,0-32.022,14.366-32.022,32.022s14.366,32.022,32.022,32.022s32.022-14.366,32.022-32.022
	c0-6.716,5.446-12.162,12.162-12.162s12.162,5.446,12.162,12.162C243.85,309.107,218.574,334.383,187.505,334.383z"/>
<path d="M218.921,259.129c-3.13,0-6.26-1.202-8.64-3.601c-0.57-0.576-1.161-1.131-1.756-1.648
	c-5.067-4.41-5.599-12.091-1.191-17.158c4.411-5.068,12.09-5.599,17.158-1.191c1.045,0.91,2.077,1.878,3.067,2.876
	c4.727,4.772,4.692,12.472-0.078,17.2C225.11,257.957,222.015,259.129,218.921,259.129z"/>
<path d="M376.013,253.264c-19.441,0-35.257-15.812-35.257-35.245s15.816-35.244,35.257-35.244c19.433,0,35.245,15.81,35.245,35.244
	S395.446,253.264,376.013,253.264z M376.013,207.097c-6.029,0-10.933,4.899-10.933,10.92c0,6.023,4.905,10.921,10.933,10.921
	c6.023,0,10.921-4.899,10.921-10.921C386.934,211.996,382.035,207.097,376.013,207.097z"/>
<path d="M404.508,309.731h-57.002c-6.716,0-12.162-5.446-12.162-12.162s5.446-12.162,12.162-12.162h57.002
	c6.716,0,12.162,5.446,12.162,12.162S411.225,309.731,404.508,309.731z"/>
<path d="M404.508,358.767h-57.002c-6.716,0-12.162-5.446-12.162-12.162s5.446-12.162,12.162-12.162h57.002
	c6.716,0,12.162,5.446,12.162,12.162S411.225,358.767,404.508,358.767z"/>
<path d="M421.011,155.483h-91.42c-6.716,0-12.162-5.446-12.162-12.162v-28.763c0-15.143,12.319-27.461,27.461-27.461H405.7
	c15.149,0,27.474,12.319,27.474,27.461v28.761C433.173,150.037,427.727,155.483,421.011,155.483z M341.753,131.159h67.097v-16.601
	c0-1.731-1.413-3.138-3.15-3.138h-60.809c-1.731,0-3.138,1.407-3.138,3.138V131.159z"/>
<path d="M48.027,175.124H12.162C5.446,175.124,0,169.678,0,162.962c0-6.716,5.446-12.162,12.162-12.162h35.865
	c6.716,0,12.162,5.446,12.162,12.162C60.189,169.678,54.744,175.124,48.027,175.124z"/>
<path d="M48.027,217.082H12.162C5.446,217.082,0,211.636,0,204.92s5.446-12.162,12.162-12.162h35.865
	c6.716,0,12.162,5.446,12.162,12.162S54.744,217.082,48.027,217.082z"/>
<path d="M499.838,175.124h-35.865c-6.716,0-12.162-5.446-12.162-12.162c0-6.716,5.446-12.162,12.162-12.162h35.865
	c6.716,0,12.162,5.446,12.162,12.162C512,169.678,506.555,175.124,499.838,175.124z"/>
<path d="M499.838,217.082h-35.865c-6.716,0-12.162-5.446-12.162-12.162s5.446-12.162,12.162-12.162h35.865
	c6.716,0,12.162,5.446,12.162,12.162S506.555,217.082,499.838,217.082z"/>
</svg>